<?xml version="1.0" standalone="no"?>
<!DOCTYPE svg PUBLIC "-//W3C//DTD SVG 20010904//EN"
 "http://www.w3.org/TR/2001/REC-SVG-20010904/DTD/svg10.dtd">
<svg version="1.0" xmlns="http://www.w3.org/2000/svg"
 width="700.000000pt" height="700.000000pt" viewBox="0 0 700.000000 700.000000"
 preserveAspectRatio="xMidYMid meet">
<metadata>
Created by potrace 1.11, written by Peter Selinger 2001-2013
</metadata>
<g transform="translate(0.000000,700.000000) scale(0.100000,-0.100000)"
fill="#000000" stroke="none">
<path d="M3329 6996 c-2 -2 -40 -6 -84 -10 -78 -6 -295 -39 -325 -50 -8 -3
-26 -7 -40 -10 -133 -23 -402 -121 -590 -215 -524 -263 -948 -680 -1233 -1212
-151 -283 -290 -689 -333 -976 -3 -21 -7 -49 -9 -63 -4 -23 -7 -46 -20 -150
-21 -163 -27 -545 -12 -735 9 -110 32 -301 43 -360 2 -11 9 -47 14 -80 6 -33
17 -91 26 -130 8 -38 16 -80 19 -92 25 -138 154 -547 226 -718 7 -16 13 -32
14 -35 27 -81 175 -385 265 -545 100 -179 325 -508 417 -610 10 -12 43 -50 73
-85 133 -158 352 -361 537 -498 251 -185 597 -343 843 -386 19 -3 46 -8 60
-11 128 -28 411 -26 578 4 111 19 294 73 397 116 222 92 492 264 705 450 127
110 325 324 472 510 198 249 434 656 577 995 18 41 36 84 41 95 98 226 246
749 275 969 3 27 8 52 9 55 4 6 13 79 22 166 2 28 7 59 9 71 18 84 26 564 12
734 -6 84 -32 281 -42 330 -2 13 -7 42 -11 65 -19 128 -120 468 -189 635 -343
828 -1012 1438 -1838 1676 -122 35 -127 36 -217 53 -81 15 -102 19 -166 26
-33 4 -68 9 -79 12 -24 5 -441 13 -446 9z m381 -311 c107 -11 118 -13 191 -25
103 -17 275 -62 399 -105 104 -37 311 -128 340 -150 8 -7 23 -15 32 -18 47
-17 329 -208 376 -255 10 -10 28 -25 41 -34 26 -19 144 -133 211 -204 184
-197 371 -487 484 -750 98 -230 185 -562 211 -799 4 -33 8 -71 11 -85 21 -127
21 -611 0 -740 -3 -14 -7 -56 -11 -95 -4 -38 -8 -72 -10 -75 -2 -3 -6 -30 -10
-60 -4 -30 -8 -57 -10 -60 -2 -3 -6 -27 -9 -53 -24 -179 -158 -647 -241 -842
-7 -16 -29 -70 -50 -120 -21 -49 -43 -101 -50 -115 -7 -14 -37 -74 -66 -135
-29 -60 -73 -143 -96 -183 -24 -40 -43 -75 -43 -78 0 -8 -166 -261 -223 -339
-116 -159 -201 -258 -352 -410 -134 -135 -156 -154 -294 -257 -646 -489 -1297
-519 -1955 -91 -247 161 -472 375 -714 679 -50 62 -194 276 -260 385 -278 458
-491 1034 -578 1564 -3 17 -9 55 -14 85 -15 93 -21 145 -36 324 -8 103 -8 387
0 501 10 142 36 331 60 441 62 289 146 523 273 764 58 112 196 326 241 376 9
10 30 37 46 58 52 70 228 246 331 333 106 90 285 213 381 264 32 17 63 34 69
38 22 16 201 94 293 128 192 70 418 121 612 138 41 4 76 8 77 9 5 4 292 -3
343 -9z"/>
<path d="M1510 4899 c-28 -12 -67 -46 -81 -71 -9 -17 -36 -141 -45 -208 -3
-19 -7 -48 -9 -65 -15 -102 -20 -197 -20 -415 0 -135 3 -272 8 -305 4 -33 9
-76 12 -95 24 -187 108 -519 164 -645 141 -316 270 -509 471 -701 150 -143
400 -304 472 -304 16 0 43 6 61 14 38 16 202 180 431 430 44 49 92 101 106
116 93 100 243 281 278 333 28 42 33 97 12 146 -6 17 -52 65 -101 106 -49 42
-95 82 -101 88 -7 7 -56 50 -108 96 -435 385 -935 899 -1280 1315 -125 151
-157 177 -217 175 -15 0 -39 -5 -53 -10z m244 -602 c227 -265 707 -751 1020
-1032 6 -5 49 -44 96 -85 47 -41 100 -89 118 -105 l33 -31 -52 -59 c-163 -187
-157 -181 -363 -398 l-149 -157 -71 51 c-331 232 -556 591 -665 1061 -11 47
-22 99 -25 115 -2 15 -8 48 -11 73 -4 25 -9 52 -10 60 -11 64 -18 182 -20 335
-1 187 3 266 14 264 3 0 41 -42 85 -92z"/>
<path d="M5373 4895 c-17 -7 -60 -48 -95 -91 -55 -68 -143 -172 -226 -269
-170 -197 -574 -615 -818 -845 -184 -174 -296 -275 -385 -352 -29 -25 -67 -58
-84 -73 -16 -14 -49 -43 -73 -62 -79 -66 -98 -148 -50 -220 102 -154 736 -840
812 -880 64 -33 166 8 361 146 92 65 302 269 367 356 208 279 369 664 423
1010 5 28 10 57 11 65 2 8 6 40 10 70 3 30 9 64 11 75 9 36 12 539 3 605 -4
36 -11 93 -15 128 -4 35 -11 76 -15 93 -5 16 -9 30 -8 32 2 14 -18 109 -28
132 -33 79 -122 115 -201 80z m-29 -800 c-2 -99 -6 -196 -9 -215 -2 -19 -7
-57 -10 -85 -5 -46 -18 -123 -30 -185 -3 -14 -7 -35 -9 -46 -13 -66 -62 -230
-98 -323 -65 -168 -163 -344 -264 -471 -55 -69 -233 -236 -306 -287 l-76 -52
-146 154 c-81 84 -156 164 -167 177 -11 13 -37 41 -57 63 -21 22 -64 71 -97
110 -33 38 -68 79 -78 90 -18 20 -17 21 21 55 21 19 74 67 117 105 43 39 81
72 85 75 27 17 330 308 520 499 248 250 299 304 475 501 l120 134 6 -59 c3
-33 4 -141 3 -240z"/>
</g>
</svg>
